<?xml version="1.0" ?><svg height="36" id="svg4488" version="1.1" width="36" xmlns="http://www.w3.org/2000/svg" xmlns:cc="http://creativecommons.org/ns#" xmlns:dc="http://purl.org/dc/elements/1.1/" xmlns:inkscape="http://www.inkscape.org/namespaces/inkscape" xmlns:rdf="http://www.w3.org/1999/02/22-rdf-syntax-ns#" xmlns:sodipodi="http://sodipodi.sourceforge.net/DTD/sodipodi-0.dtd" xmlns:svg="http://www.w3.org/2000/svg"><defs id="defs4490"/><g id="layer1" transform="translate(0,-1016.3622)"><path d="m 9.91993,1019.3622 c -0.50401,0 -0.91993,0.4232 -0.91993,1 l 0,28 c 0,0.5768 0.41592,1 0.91993,1 l 15.1582,0 c 0.50399,0 0.92187,-0.4232 0.92187,-1 l 0,-17.4414 a 0.50004994,0.50004994 0 0 0 0.5,-0.5078 l 0,-0.5449 a 0.50004994,0.50004994 0 0 0 -0.5,-0.5059 l 0,-0.918 a 0.50004994,0.50004994 0 0 0 0.5,-0.5078 l 0,-2.0683 a 0.50004994,0.50004994 0 0 0 -0.5,-0.5059 l 0,-5 c 0,-0.5768 -0.41788,-1 -0.92187,-1 l -15.1582,0 z m 7.55078,0.9766 2.0332,0 c 0.67616,-0.01 0.67616,1.01 0,1 l -2.0332,0 c -0.67616,0.01 -0.67616,-1.01 0,-1 z m -1.73243,0.027 c 0.27546,6e-4 0.49834,0.2235 0.49805,0.498 3e-4,0.2745 -0.22259,0.4974 -0.49805,0.4981 -0.27621,4e-4 -0.5003,-0.2228 -0.5,-0.4981 -2.8e-4,-0.2753 0.22379,-0.4985 0.5,-0.498 z m -5.23828,1.9961 14,0 c 0.27614,0 0.49619,0.2316 0.49219,0.5078 l 0.008,-0.01 0,22 c -8e-4,0.2566 -0.19576,0.471 -0.45117,0.4961 -0.0162,0 -0.0325,0 -0.0488,0 l -14,0 -0.008,0 c -0.0183,-10e-4 -0.0366,0 -0.0547,-0.01 -0.0145,0 -0.0288,0 -0.043,-0.01 -0.0165,0 -0.0328,-0.01 -0.0488,-0.014 -0.0159,0 -0.0316,-0.011 -0.0469,-0.018 -0.18069,-0.079 -0.29783,-0.2577 -0.29883,-0.4551 l 0,-22 c 3e-5,-0.2762 0.22387,-0.5 0.5,-0.5 z m 0.5,1 0,21 13,0 0,-21 -13,0 z m 6.5,23 c 0.54637,0 1.00001,0.4536 1,1 10e-6,0.5463 -0.45363,1 -1,1 -0.54635,-1e-4 -1,-0.4537 -1,-1 0,-0.5464 0.45365,-1 1,-1 z" id="rect4681" style="font-size:medium;font-style:normal;font-variant:normal;font-weight:normal;font-stretch:normal;text-indent:0;text-align:start;text-decoration:none;line-height:normal;letter-spacing:normal;word-spacing:normal;text-transform:none;direction:ltr;block-progression:tb;writing-mode:lr-tb;text-anchor:start;baseline-shift:baseline;color:#000000;fill:#000000;fill-opacity:1;fill-rule:nonzero;stroke:none;visibility:visible;display:inline;overflow:visible;enable-background:accumulate;font-family:sans-serif"/></g></svg>